<svg xmlns="http://www.w3.org/2000/svg" width="800" height="600" viewBox="0 0 800 600">
  <defs>
    <linearGradient id="bg" x1="0" y1="0" x2="1" y2="1">
      <stop offset="0" stop-color="#16283F"/>
      <stop offset="1" stop-color="#0C1A2E"/>
    </linearGradient>
    <pattern id="grid" width="40" height="40" patternUnits="userSpaceOnUse">
      <path d="M 40 0 L 0 0 0 40" fill="none" stroke="#2C425F" stroke-width="1" opacity="0.55"/>
    </pattern>
  </defs>
  <rect width="800" height="600" fill="url(#bg)"/>
  <rect width="800" height="600" fill="url(#grid)"/>
  <!-- pogo pin schematic -->
  <g transform="translate(400,255)" stroke="#4E7FB8" stroke-width="6" fill="none" stroke-linecap="round">
    <path d="M0,-70 L0,-18" />
    <path d="M0,-6 L0,26" />
    <path d="M0,34 C-34,34 -34,70 0,70 C34,70 34,34 0,34" />
    <path d="M-30,-34 L30,-34" stroke-width="4" stroke="#8FB2DD"/>
    <path d="M-24,-18 L24,-18" stroke-width="4" stroke="#8FB2DD"/>
    <path d="M-18,-6 L18,-6" stroke-width="4" stroke="#8FB2DD"/>
    <circle cx="0" cy="-70" r="9" fill="#4E7FB8" stroke="none"/>
  </g>
  <rect x="300" y="368" width="200" height="3" rx="1.5" fill="#2C425F"/>
  <text x="400" y="420" text-anchor="middle" font-family="Microsoft YaHei, PingFang SC, sans-serif" font-size="30" fill="#DCE6F2" font-weight="600">此处替换为真实产品图</text>
  <text x="400" y="462" text-anchor="middle" font-family="Microsoft YaHei, PingFang SC, sans-serif" font-size="18" fill="#7C91AB">建议 800×600 · JPG / PNG / WebP</text>
</svg>
